<?xml version="1.0" encoding="UTF-8"?>
<svg width="512px" height="487px" viewBox="0 0 512 487" version="1.1" xmlns="http://www.w3.org/2000/svg" xmlns:xlink="http://www.w3.org/1999/xlink">
    <title>Arbol_logo</title>
    <g id="Page-1" stroke="none" stroke-width="1" fill="none" fill-rule="evenodd">
        <g id="Arbol_logo" transform="translate(1.193665, 1.142292)">
            <g id="color" transform="translate(0.000000, -0.000000)" fill-rule="nonzero">
                <polygon id="Fill-11" fill="#2EAD75" points="136.034201 123.707372 182.26794 47.0956419 89.6541001 44.7863943 43.078852 119.338232"></polygon>
                <polygon id="Fill-15" fill="#2EAD75" points="136.033658 123.41465 139.776963 209.671554 46.786116 202.927304 43.0772258 119.337148"></polygon>
                <path d="M46.786116,202.927304 L139.776963,209.671554 L180.553699,284.862 L181.286116,284.900988 L253.323905,327.233807 L164.319699,326.266 L254.556335,327.703007 L327.816772,285.798657 L284.409324,361.305102 L206.670074,404.400216 L206.66899,404.402927 L118.868793,401.925635 L165.748146,482.131335 L92.7358073,438.68387 L41.2818671,360.641058 L53.3806988,367.079 L41.2796988,360.639431 L87.7898976,280.075961 L163.736499,326.257119 L88.6786988,280.122 L87.7898976,280.075961 L46.786116,202.927304 Z M255.495484,-3.90798505e-13 L255.495699,0.001 L255.497652,0.00108415382 L255.495699,0.002 L301.203409,81.5771542 L301.157699,81.602 L301.203951,81.5787804 L254.556335,157.012408 L181.286116,199.562954 L194.417699,175.758 L180.960699,199.017 L181.286116,199.562954 L180.369586,283.916447 L139.776963,209.671554 L136.033658,123.708998 L182.266856,47.0972682 L188.509699,58.322 L182.266699,47.096 L89.6546422,44.7874784 L164.016753,3.6763656 L255.492699,0.001 L255.495484,-3.90798505e-13 Z M301.205577,81.57607 L390.648267,83.7877438 L346.033699,157.373 L421.323315,204.637828 L328.339752,199.794529 L254.774375,156.982376 L255.043699,156.981 L301.205577,81.57607 Z" id="Combined-Shape" fill="#4FAA54"></path>
                <polygon id="Fill-31" fill="#658A4E" points="206.670616 404.4013 118.870419 401.924009 165.74923 482.129708 253.619898 484.715415"></polygon>
                <polygon id="Fill-35" fill="#658A4E" points="206.670616 404.4013 284.409866 361.306186 326.849067 437.619773 253.619898 484.715415"></polygon>
                <path d="M390.647183,83.7926225 L467.838935,124.074358 L509.112671,201.687845 L507.535227,286.642139 L466.03924,365.37881 L466.038697,365.377726 L373.012879,361.805439 L373.029324,361.092623 L326.853946,437.618689 L284.409324,361.305102 L328.119324,284.836623 L327.816772,284.324276 L328.815933,200.554379 L375.033742,276.513432 L374.993324,278.243623 L375.034826,276.515058 L408.958324,278.692623 L375.033742,276.513432 L329.151916,199.885647 L420.788681,204.792889 L462.658324,282.141623 L462.660324,282.141623 L421.323315,204.637828 L345.37834,158.452875 L390.647183,83.7926225 Z" id="Combined-Shape" fill="#788346"></path>
                <polygon id="Fill-47" fill="#4FAA54" points="41.2818671 360.641058 92.7358073 438.68387 165.748146 482.131335 118.869335 401.925635"></polygon>
                <polygon id="Fill-67" fill="#2EAD75" points="43.078852 119.337148 1.58286458 198.073819 6.57252031e-13 283.028112 46.4559912 202.573057"></polygon>
                <polygon id="Fill-71" fill="#6C7C4B" points="373.081723 361.009128 326.853404 437.620858 419.467244 439.930105 466.037071 365.378268"></polygon>
                <polygon id="Fill-87" fill="#6C7C4B" points="253.620982 484.715415 345.101881 481.040134 419.463991 439.929021 326.850151 437.619773"></polygon>
                <polygon id="Fill-91" fill="#759056" points="301.203409 81.5771542 390.646099 83.7888279 343.366151 2.58570686 255.495484 -8.52651283e-13"></polygon>
                <polygon id="Fill-107" fill="#D0806E" points="467.838935 124.075442 416.379574 46.0380499 343.367235 2.58516478 390.647183 83.7882859"></polygon>
                <polygon id="Fill-51" fill="#339955" points="87.7898976 280.075961 46.4565332 202.575225 0.000542076912 283.02486 41.2796988 360.639431"></polygon>
            </g>
            <polygon id="Stroke-109" stroke="#000000" stroke-width="1.5" stroke-linejoin="bevel" points="165.748146 482.129708 118.867167 401.92943 41.276446 360.639431 92.7358073 438.68387"></polygon>
            <polygon id="Stroke-13" stroke="#000000" stroke-width="1.5" stroke-linejoin="bevel" points="136.034201 123.707372 182.26794 47.0956419 89.6541001 44.7863943 43.078852 119.338232"></polygon>
            <polygon id="Stroke-21" stroke="#000000" stroke-width="1.5" stroke-linejoin="bevel" points="180.645138 285.030357 87.7898976 280.075961 46.4565332 202.575225 139.776963 209.671554"></polygon>
            <polygon id="Stroke-21" stroke="#000000" stroke-width="1.5" stroke-linejoin="bevel" points="139.776963 209.671554 46.4565332 202.575225 43.0772258 119.337148 136.034201 123.707372"></polygon>
            <polygon id="Stroke-29" stroke="#000000" stroke-width="1.5" stroke-linejoin="bevel" points="255.497652 0.00108415382 164.016753 3.6763656 89.6546422 44.7874784 182.268482 47.0967261"></polygon>
            <polygon id="Stroke-33" stroke="#000000" stroke-width="1.5" stroke-linejoin="bevel" points="206.670616 404.4013 118.870419 401.924009 165.74923 482.129708 253.619898 484.715415"></polygon>
            <polygon id="Stroke-37" stroke="#000000" stroke-width="1.5" stroke-linejoin="bevel" points="206.670616 404.4013 284.409866 361.306186 326.849067 437.619773 253.619898 484.715415"></polygon>
            <polygon id="Stroke-41" stroke="#000000" stroke-width="1.5" stroke-linejoin="bevel" points="328.467533 285.030357 373.082265 361.00696 326.853946 437.618689 284.409324 361.305102"></polygon>
            <polygon id="Stroke-53" stroke="#000000" stroke-width="1.5" stroke-linejoin="bevel" points="87.7898976 280.075961 46.4565332 202.575225 0.000542076912 283.02486 41.2796988 360.639431"></polygon>
            <polygon id="Stroke-57" stroke="#000000" stroke-width="1.5" stroke-linejoin="bevel" points="87.7898976 280.075961 163.740293 326.260914 118.867167 401.92943 41.2796988 360.639431"></polygon>
            <polygon id="Stroke-57" stroke="#000000" stroke-width="1.5" stroke-linejoin="bevel" points="163.740293 326.260914 254.556335 327.703007 206.670616 404.4013 118.867167 401.92943"></polygon>
            <polygon id="Stroke-69" stroke="#000000" stroke-width="1.5" stroke-linejoin="bevel" points="43.078852 119.337148 1.58286458 198.073819 7.10542736e-15 283.028112 46.4559912 202.573057"></polygon>
            <polygon id="Stroke-73" stroke="#000000" stroke-width="1.5" stroke-linejoin="bevel" points="373.081723 361.009128 326.853404 437.620858 419.467244 439.930105 466.037071 365.378268"></polygon>
            <polygon id="Stroke-77" stroke="#000000" stroke-width="1.5" stroke-linejoin="bevel" points="373.012879 360.98587 375.034826 276.515058 462.661558 282.141816 466.038697 365.377726"></polygon>
            <polygon id="Stroke-89" stroke="#000000" stroke-width="1.5" stroke-linejoin="bevel" points="253.620982 484.715415 345.101881 481.040134 419.463991 439.929021 326.850151 437.619773"></polygon>
            <polygon id="Stroke-93" stroke="#000000" stroke-width="1.5" stroke-linejoin="bevel" points="301.203409 81.5771542 390.646099 83.7888279 343.366151 2.58570686 255.495484 4.54747351e-13"></polygon>
            <polygon id="Stroke-97" stroke="#000000" stroke-width="1.5" stroke-linejoin="bevel" points="301.203409 81.5771542 224.705515 123.41465 182.266314 47.0956419 255.495484 8.45545856e-13"></polygon>
            <polygon id="Stroke-101" stroke="#000000" stroke-width="1.5" stroke-linejoin="bevel" points="180.645138 199.562954 136.033116 123.708998 182.266856 47.0972682 224.706057 123.410856"></polygon>
            <polygon id="Stroke-109" stroke="#000000" stroke-width="1.5" stroke-linejoin="bevel" points="467.838935 124.075442 416.379574 46.0380499 343.367235 2.58516478 390.647183 83.7882859"></polygon>
            <polygon id="Stroke-113" stroke="#000000" stroke-width="1.5" stroke-linejoin="bevel" points="421.323315 204.637828 462.6621 282.143985 509.112671 201.68893 467.838935 124.074358"></polygon>
            <polygon id="Stroke-117" stroke="#000000" stroke-width="1.5" stroke-linejoin="bevel" points="421.323315 204.637828 345.37834 158.452875 390.647183 83.7926225 467.838935 124.074358"></polygon>
            <polygon id="Stroke-121" stroke="#000000" stroke-width="1.5" stroke-linejoin="bevel" points="254.556336 157.012408 301.205577 81.57607 390.648267 83.7877438 345.379424 158.453417"></polygon>
            <polygon id="Stroke-121" stroke="#000000" stroke-width="1.5" stroke-linejoin="bevel" points="375.034826 276.515058 328.467533 199.685058 421.323315 204.637828 462.6621 282.143985"></polygon>
            <polygon id="Stroke-129" stroke="#000000" stroke-width="1.5" stroke-linejoin="bevel" points="466.03924 365.37881 507.535227 286.642139 509.112671 201.687845 462.6621 282.1429"></polygon>
            <polygon id="Polygon" stroke="#000000" stroke-width="1.5" points="254.556335 157.012408 328.467533 199.685058 328.467533 285.030357 254.556335 327.703007 180.645138 285.030357 180.645138 199.685058"></polygon>
        </g>
    </g>
</svg>