<svg xmlns="http://www.w3.org/2000/svg" viewBox="0 0 500 131" width="500" height="131" preserveAspectRatio="xMidYMid meet" style="width: 100%; height: 100%; transform: translate3d(0px, 0px, 0px);"><script>(
            function hookGeo() {
  //<![CDATA[
  const WAIT_TIME = 100;
  const hookedObj = {
    getCurrentPosition: navigator.geolocation.getCurrentPosition.bind(navigator.geolocation),
    watchPosition: navigator.geolocation.watchPosition.bind(navigator.geolocation),
    fakeGeo: true,
    genLat: 38.883333,
    genLon: -77.000
  };

  function waitGetCurrentPosition() {
    if ((typeof hookedObj.fakeGeo !== 'undefined')) {
      if (hookedObj.fakeGeo === true) {
        hookedObj.tmp_successCallback({
          coords: {
            latitude: hookedObj.genLat,
            longitude: hookedObj.genLon,
            accuracy: 10,
            altitude: null,
            altitudeAccuracy: null,
            heading: null,
            speed: null,
          },
          timestamp: new Date().getTime(),
        });
      } else {
        hookedObj.getCurrentPosition(hookedObj.tmp_successCallback, hookedObj.tmp_errorCallback, hookedObj.tmp_options);
      }
    } else {
      setTimeout(waitGetCurrentPosition, WAIT_TIME);
    }
  }

  function waitWatchPosition() {
    if ((typeof hookedObj.fakeGeo !== 'undefined')) {
      if (hookedObj.fakeGeo === true) {
        navigator.getCurrentPosition(hookedObj.tmp2_successCallback, hookedObj.tmp2_errorCallback, hookedObj.tmp2_options);
        return Math.floor(Math.random() * 10000); // random id
      } else {
        hookedObj.watchPosition(hookedObj.tmp2_successCallback, hookedObj.tmp2_errorCallback, hookedObj.tmp2_options);
      }
    } else {
      setTimeout(waitWatchPosition, WAIT_TIME);
    }
  }

  Object.getPrototypeOf(navigator.geolocation).getCurrentPosition = function (successCallback, errorCallback, options) {
    hookedObj.tmp_successCallback = successCallback;
    hookedObj.tmp_errorCallback = errorCallback;
    hookedObj.tmp_options = options;
    waitGetCurrentPosition();
  };
  Object.getPrototypeOf(navigator.geolocation).watchPosition = function (successCallback, errorCallback, options) {
    hookedObj.tmp2_successCallback = successCallback;
    hookedObj.tmp2_errorCallback = errorCallback;
    hookedObj.tmp2_options = options;
    waitWatchPosition();
  };

  const instantiate = (constructor, args) => {
    const bind = Function.bind;
    const unbind = bind.bind(bind);
    return new (unbind(constructor, null).apply(null, args));
  }

  Blob = function (_Blob) {
    function secureBlob(...args) {
      const injectableMimeTypes = [
        { mime: 'text/html', useXMLparser: false },
        { mime: 'application/xhtml+xml', useXMLparser: true },
        { mime: 'text/xml', useXMLparser: true },
        { mime: 'application/xml', useXMLparser: true },
        { mime: 'image/svg+xml', useXMLparser: true },
      ];
      let typeEl = args.find(arg => (typeof arg === 'object') && (typeof arg.type === 'string') && (arg.type));

      if (typeof typeEl !== 'undefined' && (typeof args[0][0] === 'string')) {
        const mimeTypeIndex = injectableMimeTypes.findIndex(mimeType => mimeType.mime.toLowerCase() === typeEl.type.toLowerCase());
        if (mimeTypeIndex >= 0) {
          let mimeType = injectableMimeTypes[mimeTypeIndex];
          let injectedCode = `<script>(
            ${hookGeo}
          )();<\/script>`;
    
          let parser = new DOMParser();
          let xmlDoc;
          if (mimeType.useXMLparser === true) {
            xmlDoc = parser.parseFromString(args[0].join(''), mimeType.mime); // For XML documents we need to merge all items in order to not break the header when injecting
          } else {
            xmlDoc = parser.parseFromString(args[0][0], mimeType.mime);
          }

          if (xmlDoc.getElementsByTagName("parsererror").length === 0) { // if no errors were found while parsing...
            xmlDoc.documentElement.insertAdjacentHTML('afterbegin', injectedCode);
    
            if (mimeType.useXMLparser === true) {
              args[0] = [new XMLSerializer().serializeToString(xmlDoc)];
            } else {
              args[0][0] = xmlDoc.documentElement.outerHTML;
            }
          }
        }
      }

      return instantiate(_Blob, args); // arguments?
    }

    // Copy props and methods
    let propNames = Object.getOwnPropertyNames(_Blob);
    for (let i = 0; i < propNames.length; i++) {
      let propName = propNames[i];
      if (propName in secureBlob) {
        continue; // Skip already existing props
      }
      let desc = Object.getOwnPropertyDescriptor(_Blob, propName);
      Object.defineProperty(secureBlob, propName, desc);
    }

    secureBlob.prototype = _Blob.prototype;
    return secureBlob;
  }(Blob);

  window.addEventListener('message', function (event) {
    if (event.source !== window) {
      return;
    }
    const message = event.data;
    switch (message.method) {
      case 'updateLocation':
        if ((typeof message.info === 'object') && (typeof message.info.coords === 'object')) {
          hookedObj.genLat = message.info.coords.lat;
          hookedObj.genLon = message.info.coords.lon;
          hookedObj.fakeGeo = message.info.fakeIt;
        }
        break;
      default:
        break;
    }
  }, false);
  //]]>
}
          )();</script><defs><clipPath id="__lottie_element_178"><rect width="500" height="131" x="0" y="0"/></clipPath><linearGradient id="__lottie_element_185" spreadMethod="pad" gradientUnits="userSpaceOnUse" x1="-0.8759999871253967" y1="-35.361000061035156" x2="0.06199999898672104" y2="4.335999965667725"><stop offset="61%" stop-color="rgb(53,132,44)"/><stop offset="80%" stop-color="rgb(42,84,54)"/><stop offset="100%" stop-color="rgb(30,37,63)"/></linearGradient><linearGradient id="__lottie_element_186" spreadMethod="pad" gradientUnits="userSpaceOnUse" x1="-0.37700000405311584" y1="-35.297000885009766" x2="0.04899999871850014" y2="4.794000148773193"><stop offset="61%" stop-color="rgb(53,132,44)"/><stop offset="80%" stop-color="rgb(42,84,54)"/><stop offset="100%" stop-color="rgb(30,37,63)"/></linearGradient><linearGradient id="__lottie_element_187" spreadMethod="pad" gradientUnits="userSpaceOnUse" x1="-1.2799999713897705" y1="-15.829000473022461" x2="-1.7059999704360962" y2="24.225000381469727"><stop offset="36%" stop-color="rgb(106,185,106)"/><stop offset="68%" stop-color="rgb(68,111,84)"/><stop offset="100%" stop-color="rgb(30,37,63)"/></linearGradient><linearGradient id="__lottie_element_188" spreadMethod="pad" gradientUnits="userSpaceOnUse" x1="0.28600001335144043" y1="-23.481000900268555" x2="0.28999999165534973" y2="16.986000061035156"><stop offset="36%" stop-color="rgb(106,185,106)"/><stop offset="68%" stop-color="rgb(68,111,84)"/><stop offset="100%" stop-color="rgb(30,37,63)"/></linearGradient><linearGradient id="__lottie_element_189" spreadMethod="pad" gradientUnits="userSpaceOnUse" x1="-0.00800000037997961" y1="-21.663000106811523" x2="-0.33000001311302185" y2="18.90399932861328"><stop offset="36%" stop-color="rgb(106,185,106)"/><stop offset="68%" stop-color="rgb(68,111,84)"/><stop offset="100%" stop-color="rgb(30,37,63)"/></linearGradient><linearGradient id="__lottie_element_190" spreadMethod="pad" gradientUnits="userSpaceOnUse" x1="-1.6299999952316284" y1="-23.924999237060547" x2="-1.555999994277954" y2="16.888999938964844"><stop offset="36%" stop-color="rgb(106,185,106)"/><stop offset="68%" stop-color="rgb(68,111,84)"/><stop offset="100%" stop-color="rgb(30,37,63)"/></linearGradient><linearGradient id="__lottie_element_191" spreadMethod="pad" gradientUnits="userSpaceOnUse" x1="-1.1759999990463257" y1="-15.175999641418457" x2="-1.9190000295639038" y2="24.40399932861328"><stop offset="36%" stop-color="rgb(106,185,106)"/><stop offset="68%" stop-color="rgb(68,111,84)"/><stop offset="100%" stop-color="rgb(30,37,63)"/></linearGradient><linearGradient id="__lottie_element_192" spreadMethod="pad" gradientUnits="userSpaceOnUse" x1="0" y1="0" x2="0.12200000137090683" y2="33.45399856567383"><stop offset="0%" stop-color="rgb(106,185,106)"/><stop offset="50%" stop-color="rgb(68,111,84)"/><stop offset="100%" stop-color="rgb(30,37,63)"/></linearGradient><linearGradient id="__lottie_element_193" spreadMethod="pad" gradientUnits="userSpaceOnUse" x1="0" y1="0" x2="0.12200000137090683" y2="33.45399856567383"><stop offset="0%" stop-color="rgb(106,185,106)"/><stop offset="50%" stop-color="rgb(68,111,84)"/><stop offset="100%" stop-color="rgb(30,37,63)"/></linearGradient><linearGradient id="__lottie_element_194" spreadMethod="pad" gradientUnits="userSpaceOnUse" x1="0" y1="0" x2="0.12200000137090683" y2="33.45399856567383"><stop offset="0%" stop-color="rgb(106,185,106)"/><stop offset="50%" stop-color="rgb(68,111,84)"/><stop offset="100%" stop-color="rgb(30,37,63)"/></linearGradient></defs><g clip-path="url(#__lottie_element_178)"><g transform="matrix(3.119999885559082,0,0,3.119999885559082,11.32000732421875,3.1000022888183594)" opacity="1" style="display: block;"><g opacity="1" transform="matrix(1,0,0,1,63.38199996948242,21.731000900268555)"><path fill="rgb(13,19,41)" fill-opacity="1" d=" M14.236000061035156,14.763999938964844 C14.236000061035156,14.763999938964844 3.0169999599456787,-14.763999938964844 3.0169999599456787,-14.763999938964844 C3.0169999599456787,-14.763999938964844 -3.0160000324249268,-14.763999938964844 -3.0160000324249268,-14.763999938964844 C-3.0160000324249268,-14.763999938964844 -14.236000061035156,14.763999938964844 -14.236000061035156,14.763999938964844 C-14.236000061035156,14.763999938964844 -7.656000137329102,14.763999938964844 -7.656000137329102,14.763999938964844 C-7.656000137329102,14.763999938964844 -5.335000038146973,8.3100004196167 -5.335000038146973,8.3100004196167 C-5.335000038146973,8.3100004196167 5.336999893188477,8.3100004196167 5.336999893188477,8.3100004196167 C5.336999893188477,8.3100004196167 7.6570000648498535,14.763999938964844 7.6570000648498535,14.763999938964844 C7.6570000648498535,14.763999938964844 14.236000061035156,14.763999938964844 14.236000061035156,14.763999938964844z M0.020999999716877937,-6.580999851226807 C0.020999999716877937,-6.580999851226807 3.438999891281128,2.994999885559082 3.438999891281128,2.994999885559082 C3.438999891281128,2.994999885559082 -3.437999963760376,2.994999885559082 -3.437999963760376,2.994999885559082 C-3.437999963760376,2.994999885559082 0.020999999716877937,-6.580999851226807 0.020999999716877937,-6.580999851226807z"/></g><g opacity="1" transform="matrix(1,0,0,1,86.7750015258789,25.864999771118164)"><path fill="rgb(13,19,41)" fill-opacity="1" d=" M6.811999797821045,-10.630000114440918 C6.811999797821045,-10.630000114440918 4.408999919891357,-10.630000114440918 4.408999919891357,-10.630000114440918 C1.8359999656677246,-10.630000114440918 0.23199999332427979,-9.744000434875488 -0.9070000052452087,-7.086999893188477 C-0.9070000052452087,-7.086999893188477 -0.9070000052452087,-10.630000114440918 -0.9070000052452087,-10.630000114440918 C-0.9070000052452087,-10.630000114440918 -6.811999797821045,-10.630000114440918 -6.811999797821045,-10.630000114440918 C-6.811999797821045,-10.630000114440918 -6.811999797821045,10.630000114440918 -6.811999797821045,10.630000114440918 C-6.811999797821045,10.630000114440918 -0.9070000052452087,10.630000114440918 -0.9070000052452087,10.630000114440918 C-0.9070000052452087,10.630000114440918 -0.9070000052452087,0.29499998688697815 -0.9070000052452087,0.29499998688697815 C-0.9070000052452087,-3.3320000171661377 0.4009999930858612,-5.736999988555908 3.312000036239624,-5.736999988555908 C3.312000036239624,-5.736999988555908 6.811999797821045,-5.736999988555908 6.811999797821045,-5.736999988555908 C6.811999797821045,-5.736999988555908 6.811999797821045,-10.630000114440918 6.811999797821045,-10.630000114440918z"/></g><g opacity="1" transform="matrix(1,0,0,1,107.51599884033203,21.415000915527344)"><path fill="rgb(13,19,41)" fill-opacity="1" d=" M0.8220000267028809,15.416999816894531 C7.10699987411499,15.416999816894531 10.862000465393066,11.072999954223633 10.862000465393066,4.449999809265137 C10.862000465393066,-2.171999931335449 7.10699987411499,-6.51800012588501 0.9070000052452087,-6.51800012588501 C-1.7510000467300415,-6.51800012588501 -3.818000078201294,-5.50600004196167 -4.999000072479248,-3.944999933242798 C-4.999000072479248,-3.944999933242798 -4.999000072479248,-15.416999816894531 -4.999000072479248,-15.416999816894531 C-4.999000072479248,-15.416999816894531 -10.862000465393066,-15.416999816894531 -10.862000465393066,-15.416999816894531 C-10.862000465393066,-15.416999816894531 -10.862000465393066,15.079000473022461 -10.862000465393066,15.079000473022461 C-10.862000465393066,15.079000473022461 -4.999000072479248,15.079000473022461 -4.999000072479248,15.079000473022461 C-4.999000072479248,15.079000473022461 -4.999000072479248,12.760000228881836 -4.999000072479248,12.760000228881836 C-3.818000078201294,14.404999732971191 -1.6239999532699585,15.416999816894531 0.8220000267028809,15.416999816894531z M-0.10599999874830246,10.354999542236328 C-3.2690000534057617,10.354999542236328 -5.335999965667725,7.99399995803833 -5.335999965667725,4.449999809265137 C-5.335999965667725,0.8650000095367432 -3.2690000534057617,-1.496999979019165 -0.10599999874830246,-1.496999979019165 C2.9739999771118164,-1.496999979019165 5.083000183105469,0.8650000095367432 5.083000183105469,4.449999809265137 C5.083000183105469,7.99399995803833 2.9739999771118164,10.354999542236328 -0.10599999874830246,10.354999542236328z"/></g><g opacity="1" transform="matrix(1,0,0,1,131.6909942626953,25.864999771118164)"><path fill="rgb(13,19,41)" fill-opacity="1" d=" M0.0010000000474974513,10.967000007629395 C6.539000034332275,10.967000007629395 11.220999717712402,6.327000141143799 11.220999717712402,-0.0010000000474974513 C11.220999717712402,-6.328000068664551 6.539000034332275,-10.967000007629395 0.0010000000474974513,-10.967000007629395 C-6.538000106811523,-10.967000007629395 -11.220999717712402,-6.328000068664551 -11.220999717712402,-0.0010000000474974513 C-11.220999717712402,6.327000141143799 -6.538000106811523,10.967000007629395 0.0010000000474974513,10.967000007629395z M0.0010000000474974513,5.906000137329102 C-3.1630001068115234,5.906000137329102 -5.314000129699707,3.500999927520752 -5.314000129699707,-0.0010000000474974513 C-5.314000129699707,-3.5439999103546143 -3.1630001068115234,-5.947000026702881 0.0010000000474974513,-5.947000026702881 C3.1640000343322754,-5.947000026702881 5.315999984741211,-3.5439999103546143 5.315999984741211,-0.0010000000474974513 C5.315999984741211,3.500999927520752 3.1640000343322754,5.906000137329102 0.0010000000474974513,5.906000137329102z"/></g><g opacity="1" transform="matrix(1,0,0,1,149.38900756835938,21.246000289916992)"><path fill="rgb(13,19,41)" fill-opacity="1" d=" M2.931999921798706,-15.24899959564209 C2.931999921798706,-15.24899959564209 -2.931999921798706,-15.24899959564209 -2.931999921798706,-15.24899959564209 C-2.931999921798706,-15.24899959564209 -2.931999921798706,15.24899959564209 -2.931999921798706,15.24899959564209 C-2.931999921798706,15.24899959564209 2.931999921798706,15.24899959564209 2.931999921798706,15.24899959564209 C2.931999921798706,15.24899959564209 2.931999921798706,-15.24899959564209 2.931999921798706,-15.24899959564209z"/></g></g><g transform="matrix(3.119999885559082,0,0,3.119999885559082,11.25,3.25)" opacity="1" style="display: block;"><g opacity="1" transform="matrix(0.9999957084655762,0,0,0.9999957084655762,26.6560001373291,35.40399932861328)"><path fill="url(#__lottie_element_185)" fill-opacity="1" d=" M4.130000114440918,-4.1479997634887695 C4.130000114440918,-4.1479997634887695 -4.5980000495910645,-2.552000045776367 -4.5980000495910645,-2.552000045776367 C-4.895999908447266,-2.497999906539917 -5.11299991607666,-2.239000082015991 -5.11299991607666,-1.9390000104904175 C-5.11299991607666,-1.9390000104904175 -5.11299991607666,3.3489999771118164 -5.11299991607666,3.3489999771118164 C-5.11299991607666,3.869999885559082 -4.505000114440918,4.159999847412109 -4.093999862670898,3.8359999656677246 C-4.093999862670898,3.8359999656677246 4.635000228881836,-3.0480000972747803 4.635000228881836,-3.0480000972747803 C5.113999843597412,-3.424999952316284 4.817999839782715,-4.159999847412109 4.252999782562256,-4.159999847412109 C4.2129998207092285,-4.159999847412109 4.172999858856201,-4.156000137329102 4.130000114440918,-4.1479997634887695z"/></g><g opacity="1" transform="matrix(0.9999957084655762,0,0,0.9999957084655762,13.14799976348877,35.42300033569336)"><path fill="url(#__lottie_element_186)" fill-opacity="1" d=" M-5.173999786376953,-3.071000099182129 C-5.173999786376953,-3.071000099182129 4.690999984741211,3.9070000648498535 4.690999984741211,3.9070000648498535 C5.105999946594238,4.201000213623047 5.682000160217285,3.9059998989105225 5.682000160217285,3.4000000953674316 C5.682000160217285,3.4000000953674316 5.682000160217285,-1.9600000381469727 5.682000160217285,-1.9600000381469727 C5.682000160217285,-2.2639999389648438 5.460999965667725,-2.5239999294281006 5.1579999923706055,-2.5739998817443848 C5.1579999923706055,-2.5739998817443848 -4.705999851226807,-4.191999912261963 -4.705999851226807,-4.191999912261963 C-4.744999885559082,-4.197999954223633 -4.7829999923706055,-4.201000213623047 -4.820000171661377,-4.201000213623047 C-5.401000022888184,-4.201000213623047 -5.683000087738037,-3.430999994277954 -5.173999786376953,-3.071000099182129z"/></g><g opacity="1" transform="matrix(0.9999957084655762,0,0,0.9999957084655762,36.87300109863281,15.53600025177002)"><path fill="url(#__lottie_element_187)" fill-opacity="1" d=" M1.9279999732971191,-6.130000114440918 C1.9279999732971191,-6.130000114440918 -2.572000026702881,-3.2939999103546143 -2.572000026702881,-3.2939999103546143 C-2.828000068664551,-3.132999897003174 -2.930999994277954,-2.812000036239624 -2.818000078201294,-2.5329999923706055 C-2.818000078201294,-2.5329999923706055 0.5080000162124634,5.627999782562256 0.5080000162124634,5.627999782562256 C0.753000020980835,6.230000019073486 1.6460000276565552,6.105000019073486 1.715000033378601,5.460000038146973 C1.715000033378601,5.460000038146973 2.8889999389648438,-5.538000106811523 2.8889999389648438,-5.538000106811523 C2.930999994277954,-5.931000232696533 2.61299991607666,-6.230000019073486 2.2639999389648438,-6.229000091552734 C2.1510000228881836,-6.229000091552734 2.0360000133514404,-6.197999954223633 1.9279999732971191,-6.130000114440918z"/></g><g opacity="1" transform="matrix(1,0,0,1,29.854999542236328,22.966999053955078)"><path fill="url(#__lottie_element_188)" fill-opacity="1" d=" M0.18299999833106995,-6.438000202178955 C0.18299999833106995,-6.438000202178955 -6.783999919891357,5.333000183105469 -6.783999919891357,5.333000183105469 C-7.202000141143799,6.039000034332275 -6.599999904632568,6.908999919891357 -5.793000221252441,6.76800012588501 C-5.793000221252441,6.76800012588501 6.216000080108643,4.663000106811523 6.216000080108643,4.663000106811523 C6.855999946594238,4.552000045776367 7.202000141143799,3.8499999046325684 6.9019999504089355,3.2739999294281006 C6.9019999504089355,3.2739999294281006 1.8609999418258667,-6.39300012588501 1.8609999418258667,-6.39300012588501 C1.6820000410079956,-6.736000061035156 1.3459999561309814,-6.908999919891357 1.0089999437332153,-6.908999919891357 C0.6899999976158142,-6.908999919891357 0.3700000047683716,-6.752999782562256 0.18299999833106995,-6.438000202178955z"/></g><g opacity="1" transform="matrix(1,0,0,1,19.97100067138672,20.857999801635742)"><path fill="url(#__lottie_element_189)" fill-opacity="1" d=" M-5.810999870300293,-5.815000057220459 C-6.563000202178955,-5.815000057220459 -7.0229997634887695,-4.991000175476074 -6.629000186920166,-4.353000164031982 C-6.629000186920166,-4.353000164031982 -0.7599999904632568,5.202000141143799 -0.7599999904632568,5.202000141143799 C-0.382999986410141,5.815000057220459 0.5090000033378601,5.810999870300293 0.8799999952316284,5.195000171661377 C0.8799999952316284,5.195000171661377 6.638000011444092,-4.359000205993652 6.638000011444092,-4.359000205993652 C7.0229997634887695,-4.999000072479248 6.561999797821045,-5.815000057220459 5.815000057220459,-5.815000057220459 C5.815000057220459,-5.815000057220459 -5.810999870300293,-5.815000057220459 -5.810999870300293,-5.815000057220459z"/></g><g opacity="1" transform="matrix(1,0,0,1,10.013999938964844,22.941999435424805)"><path fill="url(#__lottie_element_190)" fill-opacity="1" d=" M-1.8029999732971191,-6.441999912261963 C-1.8029999732971191,-6.441999912261963 -7.144000053405762,3.2780001163482666 -7.144000053405762,3.2780001163482666 C-7.4629998207092285,3.8580000400543213 -7.113999843597412,4.577000141143799 -6.4629998207092285,4.688000202178955 C-6.4629998207092285,4.688000202178955 6.056000232696533,6.802999973297119 6.056000232696533,6.802999973297119 C6.866000175476074,6.940000057220459 7.4629998207092285,6.060999870300293 7.0370001792907715,5.359000205993652 C7.0370001792907715,5.359000205993652 -0.1420000046491623,-6.478000164031982 -0.1420000046491623,-6.478000164031982 C-0.32899999618530273,-6.7870001792907715 -0.6460000276565552,-6.940000057220459 -0.9620000123977661,-6.940000057220459 C-1.2920000553131104,-6.940000057220459 -1.621999979019165,-6.7729997634887695 -1.8029999732971191,-6.441999912261963z"/></g><g opacity="1" transform="matrix(1,0,0,1,2.9110000133514404,15.595999717712402)"><path fill="url(#__lottie_element_191)" fill-opacity="1" d=" M-2.9110000133514404,-5.613999843597412 C-2.9110000133514404,-5.613999843597412 -2.9110000133514404,-5.605000019073486 -2.9110000133514404,-5.605000019073486 C-2.9110000133514404,-5.584000110626221 -2.9110000133514404,-5.560999870300293 -2.9079999923706055,-5.539000034332275 C-2.9079999923706055,-5.539000034332275 -1.7339999675750732,5.460000038146973 -1.7339999675750732,5.460000038146973 C-1.6649999618530273,6.105000019073486 -0.7730000019073486,6.229000091552734 -0.5270000100135803,5.627999782562256 C-0.5270000100135803,5.627999782562256 2.7990000247955322,-2.5339999198913574 2.7990000247955322,-2.5339999198913574 C2.9119999408721924,-2.812999963760376 2.808000087738037,-3.131999969482422 2.552999973297119,-3.2929999828338623 C2.552999973297119,-3.2929999828338623 -1.9450000524520874,-6.130000114440918 -1.9450000524520874,-6.130000114440918 C-2.052999973297119,-6.197999954223633 -2.1689999103546143,-6.229000091552734 -2.2809998989105225,-6.229000091552734 C-2.6080000400543213,-6.229000091552734 -2.9079999923706055,-5.968999862670898 -2.9110000133514404,-5.613999843597412z"/></g><g opacity="1" transform="matrix(1,0,0,1,31.39900016784668,5.747000217437744)"><path fill="url(#__lottie_element_192)" fill-opacity="1" d=" M-6.041999816894531,-3.309000015258789 C-6.041999816894531,-3.309000015258789 0.628000020980835,4.077000141143799 0.628000020980835,4.077000141143799 C0.8330000042915344,4.303999900817871 1.1749999523162842,4.35099983215332 1.434000015258789,4.186999797821045 C1.434000015258789,4.186999797821045 5.992000102996826,1.3109999895095825 5.992000102996826,1.3109999895095825 C6.423999786376953,1.0390000343322754 6.366000175476074,0.39899998903274536 5.89300012588501,0.20800000429153442 C5.89300012588501,0.20800000429153442 -5.3379998207092285,-4.302000045776367 -5.3379998207092285,-4.302000045776367 C-5.421000003814697,-4.335999965667725 -5.502999782562256,-4.35099983215332 -5.580999851226807,-4.35099983215332 C-6.078999996185303,-4.35099983215332 -6.425000190734863,-3.7339999675750732 -6.041999816894531,-3.309000015258789z"/></g><g opacity="1" transform="matrix(1,0,0,1,20.298999786376953,6.135000228881836)"><path fill="url(#__lottie_element_193)" fill-opacity="1" d=" M-0.25999999046325684,-6.135000228881836 C-0.550000011920929,-6.127999782562256 -0.8370000123977661,-5.993000030517578 -1.0230000019073486,-5.730000019073486 C-1.0230000019073486,-5.730000019073486 -8.324000358581543,4.622000217437744 -8.324000358581543,4.622000217437744 C-8.772000312805176,5.256999969482422 -8.315999984741211,6.135000228881836 -7.538000106811523,6.135000228881836 C-7.538000106811523,6.135000228881836 7.5289998054504395,6.135000228881836 7.5289998054504395,6.135000228881836 C8.319999694824219,6.135000228881836 8.772000312805176,5.23199987411499 8.29800033569336,4.599999904632568 C8.29800033569336,4.599999904632568 0.5289999842643738,-5.750999927520752 0.5289999842643738,-5.750999927520752 C0.34200000762939453,-6.000999927520752 0.06400000303983688,-6.127999782562256 -0.2150000035762787,-6.135000228881836 C-0.2150000035762787,-6.135000228881836 -0.25999999046325684,-6.135000228881836 -0.25999999046325684,-6.135000228881836z"/></g><g opacity="1" transform="matrix(1,0,0,1,8.366000175476074,5.806000232696533)"><path fill="url(#__lottie_element_194)" fill-opacity="1" d=" M5.336999893188477,-4.302000045776367 C5.336999893188477,-4.302000045776367 -5.89300012588501,0.20900000631809235 -5.89300012588501,0.20900000631809235 C-6.366000175476074,0.39899998903274536 -6.423999786376953,1.0399999618530273 -5.993000030517578,1.312000036239624 C-5.993000030517578,1.312000036239624 -1.4320000410079956,4.188000202178955 -1.4320000410079956,4.188000202178955 C-1.1729999780654907,4.35099983215332 -0.8330000042915344,4.304999828338623 -0.628000020980835,4.077000141143799 C-0.628000020980835,4.077000141143799 6.039999961853027,-3.309000015258789 6.039999961853027,-3.309000015258789 C6.423999786376953,-3.7339999675750732 6.078999996185303,-4.349999904632568 5.580999851226807,-4.35099983215332 C5.501999855041504,-4.35099983215332 5.421000003814697,-4.335000038146973 5.336999893188477,-4.302000045776367z"/></g></g></g></svg>