<svg xmlns="http://www.w3.org/2000/svg" width="500" height="131" style="width:100%;height:100%;transform:translate3d(0,0,0)"><defs><linearGradient id="b" x1="-.876" x2=".062" y1="-35.361" y2="4.336" gradientUnits="userSpaceOnUse" spreadMethod="pad"><stop offset="61%" stop-color="#35842C"/><stop offset="80%" stop-color="#2A5436"/><stop offset="100%" stop-color="#1E253F"/></linearGradient><linearGradient id="c" x1="-.377" x2=".049" y1="-35.297" y2="4.794" gradientUnits="userSpaceOnUse" spreadMethod="pad"><stop offset="61%" stop-color="#35842C"/><stop offset="80%" stop-color="#2A5436"/><stop offset="100%" stop-color="#1E253F"/></linearGradient><linearGradient id="d" x1="-1.28" x2="-1.706" y1="-15.829" y2="24.225" gradientUnits="userSpaceOnUse" spreadMethod="pad"><stop offset="36%" stop-color="#6AB96A"/><stop offset="68%" stop-color="#446F54"/><stop offset="100%" stop-color="#1E253F"/></linearGradient><linearGradient id="e" x1=".286" x2=".29" y1="-23.481" y2="16.986" gradientUnits="userSpaceOnUse" spreadMethod="pad"><stop offset="36%" stop-color="#6AB96A"/><stop offset="68%" stop-color="#446F54"/><stop offset="100%" stop-color="#1E253F"/></linearGradient><linearGradient id="f" x1="-.008" x2="-.33" y1="-21.663" y2="18.904" gradientUnits="userSpaceOnUse" spreadMethod="pad"><stop offset="36%" stop-color="#6AB96A"/><stop offset="68%" stop-color="#446F54"/><stop offset="100%" stop-color="#1E253F"/></linearGradient><linearGradient id="g" x1="-1.63" x2="-1.556" y1="-23.925" y2="16.889" gradientUnits="userSpaceOnUse" spreadMethod="pad"><stop offset="36%" stop-color="#6AB96A"/><stop offset="68%" stop-color="#446F54"/><stop offset="100%" stop-color="#1E253F"/></linearGradient><linearGradient id="h" x1="-1.176" x2="-1.919" y1="-15.176" y2="24.404" gradientUnits="userSpaceOnUse" spreadMethod="pad"><stop offset="36%" stop-color="#6AB96A"/><stop offset="68%" stop-color="#446F54"/><stop offset="100%" stop-color="#1E253F"/></linearGradient><linearGradient id="i" x1="0" x2=".122" y1="0" y2="33.454" gradientUnits="userSpaceOnUse" spreadMethod="pad"><stop offset="0%" stop-color="#6AB96A"/><stop offset="50%" stop-color="#446F54"/><stop offset="100%" stop-color="#1E253F"/></linearGradient><linearGradient id="j" x1="0" x2=".122" y1="0" y2="33.454" gradientUnits="userSpaceOnUse" spreadMethod="pad"><stop offset="0%" stop-color="#6AB96A"/><stop offset="50%" stop-color="#446F54"/><stop offset="100%" stop-color="#1E253F"/></linearGradient><linearGradient id="k" x1="0" x2=".122" y1="0" y2="33.454" gradientUnits="userSpaceOnUse" spreadMethod="pad"><stop offset="0%" stop-color="#6AB96A"/><stop offset="50%" stop-color="#446F54"/><stop offset="100%" stop-color="#1E253F"/></linearGradient><clipPath id="a"><path d="M0 0h500v131H0z"/></clipPath></defs><g clip-path="url(#a)"><g style="display:block"><path fill="#0D1329" d="m253.488 116.964-35.003-92.127h-18.823l-35.006 92.127h20.53l7.24-20.136h33.297l7.239 20.136h20.526zm-44.35-66.596 10.664 29.877h-21.457l10.792-29.877zM303.311 50.633h-7.497c-8.028 0-13.032 2.765-16.586 11.054V50.633h-18.423v66.331h18.423V84.72c0-11.316 4.081-18.82 13.163-18.82h10.92V50.633zM349.335 118.016c19.609 0 31.324-13.553 31.324-34.217 0-20.66-11.715-34.22-31.06-34.22-8.292 0-14.741 3.157-18.426 8.027V21.814H312.88v95.147h18.293v-7.235c3.685 5.132 10.53 8.29 18.162 8.29zm-2.896-15.794c-9.868 0-16.317-7.366-16.317-18.423 0-11.185 6.449-18.555 16.317-18.555 9.61 0 16.19 7.37 16.19 18.555 0 11.057-6.58 18.423-16.19 18.423zM422.199 118.016c20.399 0 35.006-14.477 35.006-34.22 0-19.74-14.607-34.214-35.006-34.214-20.402 0-35.013 14.473-35.013 34.214 0 19.743 14.611 34.22 35.013 34.22zm0-15.79c-9.872 0-16.583-7.504-16.583-18.43 0-11.054 6.711-18.552 16.583-18.552 9.869 0 16.583 7.498 16.583 18.552 0 10.926-6.714 18.43-16.583 18.43zM486.562 21.81h-18.296v95.154h18.296V21.811z"/></g><g style="display:block"><path fill="url(#b)" d="m4.13-4.148-8.728 1.596a.625.625 0 0 0-.515.613v5.288c0 .521.608.811 1.019.487l8.729-6.884c.479-.377.183-1.112-.382-1.112-.04 0-.08.004-.123.012z" transform="matrix(3.11999 0 0 3.11999 94.417 113.71)"/><path fill="url(#c)" d="m-5.174-3.071 9.865 6.978a.627.627 0 0 0 .991-.507v-5.36a.623.623 0 0 0-.524-.614l-9.864-1.618a.75.75 0 0 0-.114-.009c-.581 0-.863.77-.354 1.13z" transform="matrix(3.11999 0 0 3.11999 52.272 113.77)"/><path fill="url(#d)" d="m1.928-6.13-4.5 2.836a.623.623 0 0 0-.246.761L.508 5.628c.245.602 1.138.477 1.207-.168L2.889-5.538a.626.626 0 0 0-.961-.592z" transform="matrix(3.11999 0 0 3.11999 126.294 51.722)"/><path fill="url(#e)" d="M.183-6.438-6.784 5.333a.96.96 0 0 0 .991 1.435L6.216 4.663a.96.96 0 0 0 .686-1.389L1.861-6.393a.95.95 0 0 0-.852-.516.952.952 0 0 0-.826.471z" transform="matrix(3.12 0 0 3.12 104.398 74.907)"/><path fill="url(#f)" d="M-5.811-5.815a.96.96 0 0 0-.818 1.462L-.76 5.202a.96.96 0 0 0 1.64-.007l5.758-9.554a.96.96 0 0 0-.823-1.456H-5.811z" transform="matrix(3.12 0 0 3.12 73.56 68.327)"/><path fill="url(#g)" d="m-1.803-6.442-5.341 9.72a.96.96 0 0 0 .681 1.41L6.056 6.803c.81.137 1.407-.742.981-1.444L-.142-6.478a.95.95 0 0 0-.82-.462.95.95 0 0 0-.841.498z" transform="matrix(3.12 0 0 3.12 42.494 74.829)"/><path fill="url(#h)" d="M-2.911-5.614v.009c0 .021 0 .044.003.066L-1.734 5.46c.069.645.961.769 1.207.168l3.326-8.162a.622.622 0 0 0-.246-.759L-1.945-6.13a.628.628 0 0 0-.966.516z" transform="matrix(3.12 0 0 3.12 20.332 51.91)"/><path fill="url(#i)" d="m-6.042-3.309 6.67 7.386a.633.633 0 0 0 .806.11l4.558-2.876A.62.62 0 0 0 5.893.208l-11.231-4.51a.639.639 0 0 0-.243-.049c-.498 0-.844.617-.461 1.042z" transform="matrix(3.12 0 0 3.12 109.215 21.18)"/><path fill="url(#j)" d="M-.26-6.135a.956.956 0 0 0-.763.405L-8.324 4.622a.96.96 0 0 0 .786 1.513H7.529A.96.96 0 0 0 8.298 4.6L.529-5.751a.953.953 0 0 0-.744-.384H-.26z" transform="matrix(3.12 0 0 3.12 74.583 22.391)"/><path fill="url(#k)" d="M5.337-4.302-5.893.209a.62.62 0 0 0-.1 1.103l4.561 2.876a.63.63 0 0 0 .804-.111L6.04-3.309c.384-.425.039-1.041-.459-1.042a.663.663 0 0 0-.244.049z" transform="matrix(3.12 0 0 3.12 37.352 21.365)"/></g></g></svg>